<svg width="1" height="1" viewBox="0 0 1 1" fill="none" xmlns="http://www.w3.org/2000/svg">
<g clip-path="url(#clip0_33_13)">
<rect width="1" height="1" fill="white"/>
<path d="M0.203133 0.257529C0.120475 0.189305 0.0218742 0.180875 0 0.316533V1H0.422474C0.58671 1 0.625068 0.954517 0.596434 0.84327C0.728795 0.90043 0.799028 0.858635 0.789303 0.706208C0.910859 0.745544 1 0.706822 1 0.557468V0H0.541869C0.404106 0 0.378174 0.0565458 0.386278 0.153657C0.278768 0.0921942 0.208536 0.124155 0.203133 0.257529Z" fill="#D9D9D9"/>
<path d="M0.203133 0.257529C0.120475 0.189305 0.0218742 0.180875 0 0.316533V1H0.422474C0.58671 1 0.625068 0.954517 0.596434 0.84327C0.728795 0.90043 0.799028 0.858635 0.789303 0.706208C0.910859 0.745544 1 0.706822 1 0.557468V0H0.541869C0.404106 0 0.378174 0.0565458 0.386278 0.153657C0.278768 0.0921942 0.208536 0.124155 0.203133 0.257529Z" stroke="black"/>
</g>
<defs>
<clipPath id="clip0_33_13">
<rect width="1" height="1" fill="white"/>
</clipPath>
</defs>
</svg>
