<svg width="10" height="7" viewBox="0 0 10 7" fill="none" xmlns="http://www.w3.org/2000/svg">
<g clip-path="url(#clip0_26_2)">
<rect width="10" height="7" fill="white"/>
<mask id="path-1-inside-1_26_2" fill="white">
<path d="M2.03133 1.8027C1.20475 1.32514 0.218742 1.26612 0 2.21573V7H4.22474C5.8671 7 6.25068 6.68162 5.96434 5.90289C7.28795 6.30301 7.99028 6.01045 7.89303 4.94346C9.10859 5.21881 10 4.94776 10 3.90227V0H5.41869C4.04106 0 3.78174 0.395821 3.86278 1.0756C2.78768 0.64536 2.08536 0.869084 2.03133 1.8027Z"/>
</mask>
<path d="M0 2.21573L-293.319 -65.3499L-301 -32.0037V2.21573H0ZM2.03133 1.8027L-148.549 262.43L274.316 506.745L302.529 19.1913L2.03133 1.8027ZM3.86278 1.0756L-107.971 280.529L362.765 468.912L302.747 -34.5547L3.86278 1.0756ZM10 0H311V-301H10V0ZM7.89303 4.94346L74.3916 -288.619L-329.447 -380.098L-291.865 32.2631L7.89303 4.94346ZM5.96434 5.90289L93.0627 -282.22L-484.921 -456.942L-276.544 109.778L5.96434 5.90289ZM0 7H-301V308H0V7ZM293.319 69.7814C281.798 119.797 254.308 178.795 199.854 227.02C145.933 274.773 85.1314 294.643 35.8625 300.423C-51.9962 310.732 -117.944 280.112 -148.549 262.43L152.612 -258.825C121.18 -276.984 54.326 -307.872 -34.287 -297.475C-83.9332 -291.651 -145.074 -271.647 -199.267 -223.653C-253.994 -175.187 -281.688 -115.84 -293.319 -65.3499L293.319 69.7814ZM302.529 19.1913C300.502 54.2106 291.187 106.333 258.008 159.847C222.353 217.352 169.153 259.909 108.317 282.738C2.38079 322.493 -85.4353 289.548 -107.971 280.529L115.697 -278.378C92.0858 -287.827 3.38096 -320.875 -103.189 -280.883C-248.563 -226.33 -293.898 -94.5197 -298.466 -15.5859L302.529 19.1913ZM302.747 -34.5547C306.974 0.909393 314.834 135.867 193.634 234.111C145.717 272.952 97.4448 287.836 69.3072 294.031C40.779 300.313 17.5319 301 5.41869 301V-301C-2.47398 -301 -97.8934 -304.515 -185.446 -233.545C-307.1 -134.933 -299.33 0.562027 -295.021 36.7059L302.747 -34.5547ZM5.41869 301H10V-301H5.41869V301ZM-291 0V3.90227H311V0H-291ZM-291 3.90227C-291 -38.541 -281.742 -95.4542 -247.121 -152.208C-211.45 -210.682 -160.918 -249.105 -111.278 -270.83C-24.7293 -308.708 50.7776 -293.968 74.3916 -288.619L-58.6055 298.506C-33.776 304.13 42.7844 318.873 130.083 280.667C180.098 258.778 230.928 220.108 266.804 161.297C301.63 104.207 311 46.8683 311 3.90227H-291ZM-291.865 32.2631C-294.645 1.75666 -294.788 -51.9937 -269.154 -112.243C-240.437 -179.738 -188.019 -234.347 -121.876 -265.822C-62.8361 -293.917 -9.18956 -296.062 21.4436 -294.574C53.2699 -293.027 78.2955 -286.684 93.0627 -282.22L-81.134 294.026C-67.8413 298.044 28.5717 329.27 136.799 277.769C203.271 246.137 255.929 191.28 284.792 123.443C310.572 62.8508 310.48 8.66375 307.651 -22.3762L-291.865 32.2631ZM-276.544 109.778C-283.912 89.7398 -302.641 33.6206 -291.482 -39.1936C-277.687 -129.207 -225.662 -200.692 -161.15 -243.702C-109.279 -278.283 -60.4374 -287.382 -42.3528 -290.277C-20.4565 -293.783 -3.10962 -294 4.22474 -294V308C12.3803 308 30.391 307.743 52.8122 304.153C71.4216 301.174 120.649 291.947 172.785 257.189C237.563 214.002 289.733 142.291 303.571 51.9993C314.772 -21.0937 295.984 -77.5447 288.473 -97.9724L-276.544 109.778ZM4.22474 -294H0V308H4.22474V-294ZM301 7V2.21573H-301V7H301Z" fill="black" mask="url(#path-1-inside-1_26_2)"/>
</g>
<defs>
<clipPath id="clip0_26_2">
<rect width="10" height="7" fill="white"/>
</clipPath>
</defs>
</svg>
