<svg width="27" height="27" viewBox="0 0 27 27" fill="none" xmlns="http://www.w3.org/2000/svg">
<path d="M12.6122 12.2042C12.2771 12.4246 11.9561 12.7668 12.0049 13.3097C12.0656 13.9836 12.4057 14.5577 12.884 14.7971C13.3795 15.0451 13.9059 15.0912 14.3959 14.7919C14.5709 14.685 14.7453 14.5638 14.839 14.3307C14.9594 14.031 14.9992 13.6519 14.9992 13.3167C14.9992 13.2243 15.0069 13.1062 14.9755 13.0195C14.9565 12.967 14.9192 12.919 14.8928 12.8727C14.8065 12.7213 14.7228 12.5438 14.6079 12.4288C14.4802 12.3009 14.3645 12.1758 14.2068 12.1126C13.9946 12.0277 13.7947 12.0021 13.5733 12.0021C13.4223 12.0021 13.2713 12.0021 13.1203 12.0021C13.0888 12.0021 13.0516 11.9956 13.0205 12.0055C12.9883 12.0159 12.9663 12.0521 12.9365 12.0625C12.872 12.0852 12.8427 12.1225 12.7894 12.1576" stroke="black" stroke-width="24" stroke-linecap="round"/>
</svg>
